<mxfile>
    <diagram id="Zu0UF6cSSHF_sXQEK4sH" name="Page-1">
        <mxGraphModel dx="627" dy="411" grid="1" gridSize="10" guides="1" tooltips="1" connect="1" arrows="1" fold="1" page="1" pageScale="1" pageWidth="827" pageHeight="1169" math="0" shadow="0">
            <root>
                <mxCell id="0"/>
                <mxCell id="1" parent="0"/>
                <mxCell id="11" style="edgeStyle=orthogonalEdgeStyle;rounded=0;orthogonalLoop=1;jettySize=auto;html=1;exitX=1;exitY=0.57;exitDx=0;exitDy=0;exitPerimeter=0;entryX=0.548;entryY=0.005;entryDx=0;entryDy=0;entryPerimeter=0;endArrow=none;endFill=0;" parent="1" source="2" target="8" edge="1">
                    <mxGeometry relative="1" as="geometry"/>
                </mxCell>
                <mxCell id="12" style="edgeStyle=orthogonalEdgeStyle;rounded=0;orthogonalLoop=1;jettySize=auto;html=1;exitX=0;exitY=0.57;exitDx=0;exitDy=0;exitPerimeter=0;entryX=0.877;entryY=-0.003;entryDx=0;entryDy=0;entryPerimeter=0;endArrow=none;endFill=0;" parent="1" source="2" target="8" edge="1">
                    <mxGeometry relative="1" as="geometry"/>
                </mxCell>
                <mxCell id="2" value="" style="verticalLabelPosition=bottom;shadow=0;dashed=0;align=center;html=1;verticalAlign=top;shape=mxgraph.electrical.opto_electronics.led_2;pointerEvents=1;rotation=-90;flipH=0;flipV=1;" parent="1" vertex="1">
                    <mxGeometry x="150" y="570" width="50" height="30" as="geometry"/>
                </mxCell>
                <mxCell id="16" style="edgeStyle=orthogonalEdgeStyle;rounded=0;orthogonalLoop=1;jettySize=auto;html=1;exitX=1;exitY=0.57;exitDx=0;exitDy=0;exitPerimeter=0;entryX=0;entryY=0.5;entryDx=0;entryDy=0;entryPerimeter=0;endArrow=none;endFill=0;" parent="1" source="3" target="18" edge="1">
                    <mxGeometry relative="1" as="geometry">
                        <mxPoint x="320" y="541.6" as="targetPoint"/>
                        <Array as="points">
                            <mxPoint x="280" y="524"/>
                            <mxPoint x="320" y="524"/>
                        </Array>
                    </mxGeometry>
                </mxCell>
                <mxCell id="3" value="" style="verticalLabelPosition=bottom;shadow=0;dashed=0;align=center;html=1;verticalAlign=top;shape=mxgraph.electrical.opto_electronics.photodiode;pointerEvents=1;rotation=-90;flipH=0;" parent="1" vertex="1">
                    <mxGeometry x="250" y="540" width="55" height="30" as="geometry"/>
                </mxCell>
                <mxCell id="9" style="edgeStyle=orthogonalEdgeStyle;rounded=0;orthogonalLoop=1;jettySize=auto;html=1;exitX=0;exitY=0.57;exitDx=0;exitDy=0;exitPerimeter=0;entryX=0.111;entryY=0.011;entryDx=0;entryDy=0;entryPerimeter=0;endArrow=none;endFill=0;" parent="1" source="4" target="8" edge="1">
                    <mxGeometry relative="1" as="geometry"/>
                </mxCell>
                <mxCell id="10" style="edgeStyle=orthogonalEdgeStyle;rounded=0;orthogonalLoop=1;jettySize=auto;html=1;exitX=1;exitY=0.57;exitDx=0;exitDy=0;exitPerimeter=0;entryX=0.414;entryY=0.002;entryDx=0;entryDy=0;entryPerimeter=0;endArrow=none;endFill=0;" parent="1" source="4" target="8" edge="1">
                    <mxGeometry relative="1" as="geometry"/>
                </mxCell>
                <mxCell id="4" value="" style="verticalLabelPosition=bottom;shadow=0;dashed=0;align=center;html=1;verticalAlign=top;shape=mxgraph.electrical.opto_electronics.led_2;pointerEvents=1;rotation=-90;flipH=1;flipV=1;" parent="1" vertex="1">
                    <mxGeometry x="150" y="500" width="50" height="30" as="geometry"/>
                </mxCell>
                <mxCell id="7" value="" style="shape=image;verticalLabelPosition=bottom;labelBackgroundColor=#ffffff;verticalAlign=top;aspect=fixed;imageAspect=0;image=data:image/png,iVBORw0KGgoAAAANSUhEUgAAAh4AAAHDCAYAAABrixMmAAAAAXNSR0IArs4c6QAAAARnQU1BAACxjwv8YQUAAAAJcEhZcwAACxMAAAsTAQCanBgAAAACYktHRAD/h4/MvwAAACF0RVh0Q3JlYXRpb24gVGltZQAyMDIxOjA1OjI5IDIwOjQ1OjQ3CFKbJAAALBNJREFUeF7t3QeYLVWBb3FGcs5JclAEJKOIiqKCAUUQTKCAiiLBAI4iGEBHSSLDKDKMCRUwMYqoKDIKioCgoiCSs4jknPN763+7W/tedt/b4VSdOlXr933rdd9+7yH30Kf37qpde88mSZIkSZIkSZIkSZIkSZIkSZIkSZIkSZIkSZIkSZIkSZIkSZIkSZIkSZIkSZIkSZIkSZIkSVLX/NvwR0mSpErNTufTQ3Q5PUmSJEmV+X/D3UwH0FIkSZJUiZGJx0iP0jdofZIkSeqpGSceo/sNbUu5JSNJkjRlpQnHjF1LH6KFSZIkadJKE42xeoCOomeRJEnShJUmGOPpFNqSfBxXkiSNW2lSMZEuod1oPpIkSZqp0mRiMt1Jh9IKJEmSVFSaREylJ+j7tCl5G0aSJE2nNHnoVX+gHWkukiRJKk4Yet1N9AlakiRJUoeVJgpV9Qh9ndYlSZLUQaUJQh2dQduQu6JKktQhpUlBnV1De9NCJEmSWq40GehH99Lh5OO4kiS1WGkS0M8epxNoA5IkSS1TGvyb0um0FT2DJElSC5QG/KaVbdl3pXlIkiQNsNJA39RuoewHsjhJkqQBVBrgm95DdDStTpIkaYCUBvZB6Sk6iV5IkiRpAJQG9EHsXNqe3JBMkqQGKw3ig1w2JHsfzU+SJKlhSoN3G7qLDqJlSZIkNURp0G5Tj9Kx9FySJEl9Vhqs29qptAX9G0mSpD4oDdBt70LaieYiSZJUo9LA3JVupH1pEZIkSTUoDchd6346klYmSZJUodJA3NWeoO/R80iSJFWgNADbbLOdSVuTJ+NKktRDpUHX/tXltBvNS5IkaYpKg609vdvoQFqSJEnSJJUGWRu7h+l/aA2SJEkTVBpcbXz9mF5CbkgmSdI4lQZUm1h/pLfQHCRJkmaiNJDa5Lqe9qYFSZIkFZQGUJta99AhtDRJkqRRSgOn9aZH6L9pFZIkSSgNmNbbsiPqt2kdkiSp00oDpVXXKfRikiSpk0qDo1Xf2fRa8lFcSVJnzE7ZCnw9mjtfUG1WpB1pO7qXLqOnSJKk1luE9qdbqfTbuVXfdbQneSaMJKkzMuhl8LuaSoOjVV8mf5kEZjIoSVIn5BbMNpSj4UuDo1Vfbr8cSsuQJEmdsTHlUdA8EloaIK3ashdIDqVbjSRJ6owV6DDKrpylAdKq7Un6Lq1PkiR1xgL0frqGSgOkVd/PyVNxJUmdknUgb6CzqDQ4WvWdQ1vTM0iSpM54PuU2gOtA+tPF9HaakyRJ6oxsinU45YmM0gBp1ZZj+d9H85EkSZ2xIH2QsilWaYC0aruNPk6LkiRJnZF1INtT1iKUBkirtvvoc/RMkiSpU15A36c8FloaJK26HqWv0OokSVKnrExHUH4bLw2SVl2Z9GXytwFJktQpC9E+lAWRpUHSqu0XtDm5F4gkqVPmoDfReVQaIK3azqWcy+NeIJKkztmU/pdcB1J/l9DO5F4gkqTOWYWOJNeB1N/f6APkXiCSpM7JOpC96DIqDZJWXbfTJ8m9QCRJnZMFkK+gH5G3YertfsputO4FIknqpJXoELqDSgOlVZN7gUiSOm0e2oXOp9JAadWUK07fo/VJkqTOyW2YTeh4eoxKg6VV08/pJeReIJKkTlqacjjajVQaKK2achbP68gJiCSpk7IpWQ6n+zWVBkqrpotoR8rrL0lSJz2XjqEHqTRYWu+7lvagrMORJKmTFqG96SoqDZbW+26hj1L2Y5EkqZNyJsmr6RR6ikoDpvW2e+ggWookSeqs1ejzdDeVBkzrbQ/TUbQySZLUWTmX5N10IZUGTOttT9BxtDZJktRZeRz0xZQNsh6n0qBpve1kegFJktRpOZvkU3QzlQZM62159PmV5F4gkqROm4veSmdTacC03pYt8N9Is5MkSZ22AX2N3BOk+q6gd1EmfpIkddrCtBdlp87SoGm9K9vf70MLkCRJnZb1CJvSNymPipYGTutNd9KBtBhJktR5i9IH6VIqDZzWmx6gI2g5kiSp83IVZDM6gR6h0uBpU+8xynqbZ5MkScLi9CHKQsnS4GlTL9ven0hZ+CtJkpCrIJvTdym/qZcGUJt6v6C8zu4FIknSsByUti9dTaXB06beufR6yoGAkiQJGRS3oP8lt2evpovpnTQ3SZKkYcvQ/nQdlQZQm1rZ9v7jlDU3kiRpWK6CvIpOopzgWhpEbfJlx9kv0eokSZJGySF1n6QbqDSI2uTLkzCZ3L2IXIgqSdIoOSzttfQTepJKA6lNvvPoTTQHSZKkUVagHNWf80tKg6hNvqyvyc6zC5IkSRolv53ncdGfU24blAZSm1z30GG0PEmSpBmsTJ+lPLlRGkhtcuUR5+NpfZIkSTOYk7aj06g0kNrkO522IjckkySpYFU6hLwK0tsuo73IdSCSJBXkKsg2lCdi3Bekd91LX6BnkSRJKsi+IPvRVVQaTG1ynUqvIW/DSJJUkA2zXkrH0UNUGkxt4l1JeRx3YZIkSQWL0B50PpUGU5t4D9DRtCZJkqQxrEdfpLuoNKDaxPslZb+V7D4rSZIK5qEd6FdUGkxt4l1L/06LkiRJGkMey/0MuUV7b8rpuF+mDUiSJI0htwry5MYPKDt6lgZVm1h/pPeQe4JIkjQTS1FuG1xKpQHVJtb9lKsgG5EkSRpDHsvdlL5OeZKjNKjaxPoTvZcWIkmSNIbcLtiVfkelAdUmViZyX6XnUSZ4kiRpDGvREXQ7lQZVm1gX0p7kxmSSJM3EXLQ9ZUvxp6g0qNr4yxMxx9ILyKsgkiTNxAr0SbqOSoOqTay/0odpWZIkSWPIQWpb0HfpUSoNqjb+nqSf01tpXpIkSWNYjN5Pf6HSoGoT6x76Cr2IvBUjSdIYMkhuTMfQvVQaVG1iXU0H0MokSZLGMB/tTGdSaUC1ifcbehe5Q6okSTPxLDqEbqLSgGoT6yE6gbYkT8uVJGkMc1DOiTmRXJDam3Lo3+GUbdpdDyJJ0hgWp/fR+VQaUG3iXUn/Qdn4TZIkjWFd+k+6jUoDqk28i+hjtBpJkqSC7JC6LZ1MHtnfu35P+9ByJEmSCpamD1F29iwNpjbxst19njLag5YkSZI0g5G9QY6mu6k0oNrEe4J+Qe+gRUiSJM1gHnoz5bC6bDFeGlBt4uUJox9T9l1ZlCRJ0gyyXmE/uoJKg6lNrqytycTu3bQESZKkUXIr5oX0VbqPSoOpTa7cjjmd9iRPz5UkaQbZpv3tlMGyNJDa5MvC1LNob1qRJEnSKDlU7UC6jkoDqU2tP9C+5D4hkiSN8gzanL5FD1JpELWpdSF9gtYkSZI0LKe67kq5ZVAaQG3qXUrZtj270Xp2jCRJw3Ji7kH0dyoNoDb1cnbMwbQhOQmRJAk5Vv6V9F16hEoDqE29aymn6G5CTkIkSUI2z8p24jnbpDR4Wm+6gY6kF1HW4EiS1HlrU35Dv4VKg6f1ppvoKHop5eqTJEmdNidtTT+kx6g0eFpvupWOoVfQHCRJUqflRNcPUh4fLQ2c1rvuoK/Rq2kukiSp0zagL1AGyNLAab0rpxJ/k15Hc5MkSZ2VgXB7OoVytklp4LTedS+dQNvSvCRJUmflILWP0MVUGjSttz1A36M30vwkSVInZZ+KjeiL5K2YenqIsgB4B8oOtZIkdVIWRr6BTqbHqTRoWm/LRnA/ojdTTiyWJKmTRp6K+TOVBkzrffdT1oS8lvJotCRJnbQOfZ7coKy+7qQvU04rdsdUSVInZaOs/DZ+Ij1KpQHTet+NdARtTJ4dI0nqpJwVszudS6XB0qrpKspR/muSJEmdtAblSHmP7a+37Er7UVqJJEnqnByctgUdT3lktDRYWjWdTXvRUiRJUucsRO+iM6k0UFo1ZUfa0+gdtDBJktQ5q9Kn6FoqDZZWTdkj5CR6E7lluySpc/JY6Evo63QflQZLq6a83sfRa8g9QiRJnZNdOt9Gv6SnqDRYWjVla/xjKJNA9wiRJHXOCrQ/XU6lgdKq6wbKE0l5MkmSpE7J5lgvoPw2fjeVBkqrrt/TnrQYSZLUKfNQFkWeQnlSozRQWjVlV9qcnvt6cj2IJKlzlqF/p4uoNFBadd1OX6ANye3aJUmdkoFvA/ovyoBYGiituv5KH6FlSZKkTpmLtqHsU/EYlQZKq6Yn6VTagdwfRJLUOUvQ++h8Kg2UVl330ldpM/JWjCSpc9amz9FNVBoorbquoQMpO9VKktQpc9Cr6XuUrcNLA6VV129pV/K8GElS5yxCu9E5VBokrboepu/QqyinF0uS1CnPps9SduwsDZRWXbn9ldtguR0mSVKn5IySl9O36EEqDZRWXX+gXIVakCRJ6pQFaBf6DZUGSauuB+hrtAn5VIwkqXNWp4PoH1QaKK26sjPtB8izYiRJnZOFkFvRD8gNyuotTyGdQJuTV0EkSZ2zJO1DF1NpoLTqupL2paVJkqROyW/fz6cv031UGiitmh6nnJibvVl8LFeS1Dnz0U7kgtT6+xsdQCuQJEmd44LU/pTD6n5G29KcJElSp2Sbdhek9qeb6RBajSRJ6hwXpPav0ylH9s9DkiR1ShakZnOs7JD6KJUGSqumO+lIWoskSeqcpegT5FqQ+juDtqPcDpMkqVOyEPItdDaVBkmrrr/TxyiTQEmSOmcDOpayW2dpoLRqym2v4yj7skiS1DlZjLo/5Tfy0kBp1ZWTcncmF6NKkjonaxDeSGdSaZC06rqNsh+LG5NJkjppPfoqPUylgdKqKRuTZXv2l5GH1EmSOmdxykFpPg1Tf5fQHrQASZLUKXPTbnQtlQZJq6576Qu0BkmS1ClZB5ID6i6l0iBp1XYabU2ekitJ6pRn0PZ0AZUGSKu26+gjlFthkiR1RiYgO1IGwtIAadWWxb9ZBPwckiSpM7IGZG+6g0oDpFXfT+jF5NMwkqTOWJgOpzwWWhocrfrOpZwN4zoQSVJnZDtwF6D2tytpd5qXJElqvWwDfgg9RaWB0eopu6J+klyIKknqhG0oB6OVBkWrrwfpKFqFJElqtXdTaTC0+sv6m+/TxiRJUivNSZ5+27zOoNeQT8JUzJW+klSvrPOYi7aY9ic1RW67vI2yGdxDdBnliogkSQNvMcrgVvrN25rRjZQdUfNYtHrIKx6SVL/ssrkCubaguRaiLWlPWoQupEwWJUkaSGtS6Tdta2b300GUq1WSJA2k7KxZGuSsud1Hn6ZcBdEkeKtFkvpnQXr10KcaEDmL56W0B2WRcG7BZG8WSZIabzlyN9PB7i76GGUSKUlS4/2WSgOaDVY5jfijtABpJrzVIkn9NR9tNfSpBlj+O2ZvlvdQJiK5BfM4SZLUKEuTR+e3r1tob/JE3Bm4Nawk9d/p9PKhTxvjTsrunXdP+9PQvhbPpJUp275rfG6mnEz8VXokX5Akqd92o9Jvzf3ox7QJPYNKMulYi3aiYykDa+mfY9OXnVBHnoSRJKmvlqCsBygNWHX2KZrolfBMUDagj9M55G2jmXcVbUfecZAk9dXPqTRQ1VUmDb0YDBenHeg75Hk0Y3cWPZ8kSeqLnak0QNXVjtRrOWAtt5HOo9L/pg1N0FYiSZJqlcWbWXxYGpzqaEWq0nPpCLqdSv/7XS7/3Q8lT8KVJNXqh1QamOpoDqpDFldmjcMp5HqQ6cukLPuAjLWwV5KknnojlQakOurHYJct4/enLLgs/Tt1tdya2pAkSapUdr/M8eulwajqFqV+yaLW7GOSKz5eBRkqr8OXyFNwJUmVOoFKA1HVrU9NkLUmB5NrQYa6lbLw2MdvJUmVyDH5pQGo6t5OTTIPZcD9I5X+fbtWHr99DkmS1FNZa3E1lQafKvsiNVV2Uj2eHqPSv3tXepg+QC4+lST11IeoNPBU2V+o6XKg3ico24+X/g5dKWf7VP34sySpQ7LQsx+7fq5OgyDnxeQJoDOp9PfoQvfSLuTaD0lST+Q009KAU2W5mjBo1qWvUG5DlP5Obe9HtBRJkjQlecqkNNBU2cU0qJakAyhPgZT+bm3uNtqWJEmakrOpNNBUWbY2H2R5GmZXuoRKf7829w3KXjCSJE3KW6k0wFTZQdQGefLjNfQrKv0929qfyUPnJEmTkkWU11NpgKmqa6htCxZz2+o4epxKf+e2lc3XXkqSJE3Y7lQaXKrs+dRGORsmp8DeTaW/d5vKJGsv8qkXSdKEzE1171txLLXZAvR+upZKf/829TXK95AkSeOW3SpLg0pVPUrLUtvNTttT27dl/x114b+nJKlH5qVbqDSoVFVbFpmOR25HZCHquVR6LdrQPyhbz0uSNC4fptKAUlV30fzUJZmAbEE5kK30mgx62Q33VSRJ0ixlXcIdVBpQqiqLE7soE5CX0a+p9LoMcrmN9gaSJGmW9qfSYFJVOSU36yC6bDP6Pyq9PoPaE/R2kiRpprIrZd1PuPjb8ZBN6RdUeo0GsafovSRJ0kztTKWBpKrOIf3LVpQrQaXXahDL2iFJksaUrcD/RKVBpKry277+JefB5CTftpyI+2lyozFJ0pg2p9IAUlW5xaCnW5lOptJrNmh9npx8SJLG9GMqDSBV5dkfY2vL7Zf9SJKkojWozkPPsvulvxGPrS23X3YiSZKKjqLS4FFVW5NmLrdffkSl128QymR2S5Ik6WkWo1upNIBU0UXU9X09xiu3X+p+9LlX3UfrkyRJT7MDlQaPqsox/RqfTAxPpNLr2PRuppVIkqTpZN3FqVQaPKroHlqaND757/MOup9Kr2eTu4wyeZIkaTqrUA4AKw0eVXQCaWJWo/Oo9Ho2ubMpC2clSZpO3afXvoI0MXNSNut6kkqvaVPLImZJkqYzB11ApYGjiq6keUkT9yK6jkqva1PzzB5J0tM8j+r8bfpo0uQsTMdR6XVtYneTi00lSU9zOJUGjqrahjR5eSqpzvU5U+lcyu0iSZL+aW7KfhulgaOK7qTlSZO3Md1Epde3aR1KkiRNZx16lEoDRxX9mtxYbGpWoL9Q6fVtWq8iSZKmsw+VBo2qOog0NQvSKVR6fZvUbfRMkiTpn55Bv6LSwFFVO5OmJleOvkCl17dJ/Zw8NFCSNJ2svcjTCKWBo4oeo81IU/c+avp+H9uSJEnTeTOVBo2quoOyS6em7jXU5K3W/0bzkyRJ0zmWSgNHVV1OS5Kmbl26gUqvcxM6mCRJmk52GK1zV9P0V3Ly0Rsr0tVUep37XW6vrUGSJE1nVbqLSoNHVWU/EScfvbEcXUGl17nf/ZJcaCpJepqsGXiKSoNHVWXysQRp6palS6n0Ove7rCWSJOlpDqDSwFFl2RhrGdLULU2XUOl17mf/oOxDIknSdLK/x8+oNHhU2fW0NmnqsnlXE0+33Z8kSXqaRekaKg0eVXYPvYI0davTrVR6nfvV7eTjtZKkopznch+VBpAqe5zeQZq69eleKr3O/WpvkiSpKId9PUGlAaTqDqE5SFPzEqrzQMBZlbUeOSFZkqSi3ag0gNTRmeRhY1O3C5Ve336V7ylJksZ0GJUGkDrKSacesz51n6PS69uPriWvZkmSxpQnXf6XSoNIXeVYfQerycuptj+l0mvbj3YiSZLGlG3Vz6XSIFJXv6M1SZOTfTQuo9JrW3f598iEVpKkMS1F/XjMdnRZKPlxmpM0cTlU7hEqvbZ156PTkqRZWoXyZEJpIKmzC2lD0sTtTqXXtO6+SZIkzVJud2QzqNJgUmd51PdQmo80fjmw7UQqvaZ1dj/5306SNC4bUHYaLQ0odfd32pE8AXX8FqYbqPR61ln+u0mSNC6b0gNUGlD6URa/bkIan5xGXHod6+xUkiRp3F5OTVmsONLxtDxp1rLOovQa1tWT5MnEkqQJeS3ljJXSwNKvHqSDaXHS2BajW6j0GtbVPiRJ0oS8npp0JshIOejus5QBVmVvptJrV1cXkCRJE7YF5UpDaXDpdzml9dO0CGl6WZT7Wyq9bnW1GkmSNGEvoqYdxT66PIlzIHkLZnob0VNUes3q6D0kSdKkZGOvO6g0wDSlXJk5ilYlDennQtPvkCRJk7YW3USlQaZJ5amKHIDnY7izzbYc9esJpSxwdR8WSdKU5L79dVQaaJrYWbQNdfnwsqOp9NrUkQcASpKmLHs0/JFKA01Ty0F4+9KS1DUrUb8ejd6LJEmaspzHcRKVBpsml8eDT6AsmO3SbYCvU+n1qLofkCRJPZHbF4dTacAZhC6iPWhBartnU+k1qLo7qcu3uSRJFdiNcqpsaeAZhHKi6lco59S0+SrIr6j096+69UiSpJ56JTV5r4/xdgXtT3kapG3eSKW/c9W9kyRJ6rm16UoqDT6DVh7J/QW9lealNpiT+nGGy3+SJEmVWJh+SKUBaFDLzqjHUBakDvp6hcOo9Hessl+SJEmVyTqJnE7atNNte9Hf6HOUnVwHcT3IxlT6e1XZrSRJUuVyheAfVBqM2lDWg+SQukHaJCuTpeup9PepMkmSarEUnU6lwahNXUj70SrUdFlzUfo7VJkkSbWZnT5Fg/zI7UT6Mx1A61ITb8dsRqV/7yqTJKl2WV9wKZUGprZ2LeUKw0soE7AmmIseotK/b1VJktQX81B2O32KSgNUm7udjqXXU78f0a379pckSX2VhadXU2mQ6kIPUs662ZkWo7odSKV/r6qSJKnv5qejqDRQdamsfTmDPkA5SbYOL6PSv0tVSZLUGLn6kadCSgNWF8vi1E/SOlTV4tQlqPS/XVWSJDXKHLQX3U2lgaurXUNHUBan5jXqpaw5Kf1vVpFUuwUoz/NL0szk58TXqDR4db1Myr5DO1Iv1oWcSaX/nSqabQPyfHxVZUF6NeWEx+9TdvcbWcH+e3o75bAiSRrLJnQ+zTiA2VA5xO4s+ijlcL7J3JL5Hyr9s6to2v+RmVNO3sumLhkkFiVpMjKJyD3afC+dTeM5nyGXD7enQTzrQFI9su/F26gtJ95W2eU00a3bM2kp/bOqqPjFdBl9g95L61Gv7yepHTJZWIuyAvundD+Vvp/G0//Rc0iSxpKxaBfKLyylnyNd7zR6Fk1UHuUt/fOqqPjFUg9QHvE5mLLhiffouykTjTVod/oe3UKl75fJliskOe0xt2gkaSy5uror9eOQsyZ2I72JJnvl+HVU+udWUfGL4+0G+hkdQlng8lzyfn275Js4s+fdKAuZbqLS90KvyymWO5C3XyTNTLb8zpX5q6j0s6Tt5SrzQTTVX9bqPLOl+MWp9BhdRCdQ7hm9hpYnB5DBkIljJpDvpm9Tv4+x/g1lsZQkzUweksh4k1+Gu7AFe+5C5Jf+7MHRCxtR6X+n52UykE/qkAWsf6VMSrLwJdvj5h7d3yiX11W/hSjrd9L6w2XSMTc1SSazOd3x85TV25I0M6vTHvQuWiRfaJFsr/4lyn4e2XujV3J67l+GPq1WnROPsWQgyT26TEIyGRmZkORjTvJ7hDQ1+U0gV51GTzDSqjRIzqMsKsuqdkmalWzDnidhshQgtxIGeeuIPPDxXcpjr72ccIzImHDB0KfVasLEY1ayYGZkMpI1JTdT1hnkY7qNuv5bcP47Lkkr0yqFj9nvv2lXMSYrE9H9KGc65HKqJI1HbklkAeW29Erq94mw45FfyjPZyEL+3DGocrx+PmVvpcoNwsRjVjL43EqjJyMjn498vIvupftokG7rZL3F4sPlTTP68+Vo9ARjPuqS7LKXy6i5KiZJE5Gfl1tSJiH5mJ+nTZDxLMsR8vMtk41MBOoao3NQXJ5crVwbJh4T9TBlEjKzMkFJWVuQkwJnLJOXsb6eTW5ydSHNM8bnM/45W4iPnlyMfMwaDI0t9zo/TF+mrn0fS+qdbA+RXbyzwHLD4fJLXdXyy3FuIadMMv5E+bnWD9vRD4c+rVYXJx5qn2w8lqdw/j7tT5I0ddnBO+sesj5umVEtO+rz/L/JGDryFE0+jv48V9vzZODosnwgH7N8IJ83RR5JzvqRWuQFMhv0cqUqO+9lMi1JmpjPUOlna8/zcDi1RW5LfYuyf4y3qCRpYrJWsBZOPNQ2eWzuQnrBtD9Jksbj2cMfK+fEQ22URWE5GTdH8WexryRpbJkL5LDPWri4VG33a9qJsphLkvR0udpxxdCn1fOKh9ouz6ZnG+CcqCxJerrs6lqXu5x4qAuyJ8qPKecbDMJuhZJUp82HP9bhUice6pK96A/kabeSNCRLLuqceFzmxENdk9N3z6fdyT0/JHVdTvLNJml18YqHOinb1R9DJ1Fuw0hSV71h+GNd/upTLeq6PO2Sp17y9Iskdc2fKefU1CEnyS/iFQ91XU6lPJ0OppwGLEldkcdo65p0xAX0gBMPaWitRzYbO4dyv1OSuuCtwx/rko0d3cdDGuV5lBm5h81Jartc4d1t6NPanJX/w4mHNL0FKIfNfZsWzhckqYW2o9xqrlOuKjvxkMawA+WwuRdO+5MktcsHhj/W5Sq6NZ848ZDGlmOic2nwcHLHU0ltkdO76/6latr6jnDiIc1c3iMfpjxy5lH7ktrgoOGPdZq2viOceEjj8xzK/cnDKBuQSdIg2oJePvRprf458XADMWniLqN3UM59kaRBkTE/P7c2nvan+lxM6wx9OnTF47qhTyWN05p0Lh1KXv2QNCh2pLonHfGD4Y/TjOxVsBRlNrLuqHKC59wkaWyX0jvJqx+SmmwxytXajPd1y+Gclwx9OvNNkuag7OI4MhEZmZhkpb/a62G6d4weoqco3zfZfCZPemSvi3xDL0srDH+ta/KafIk+SfflC5LUMF+h9wx9WqtMdtYa+nTIzCYeY8lAk9lLJiHZ533VUc1HaqY7KQei3TSTj3fRYzRZ+X56JuWbbCPalF5Ci1AX5HV8P51Mrp2S1BQvpn8u7qzZZ+iAoU+HTGbiMZb8s5ak0RORtMrwx/w23Mv/PQ3JhOJmysQhH0d/Pvprj1A/zE55DHVbyrkAy1Pb/YQyAblh2p8kqX9ysSDbAWQc7of16KKhT4fUORGYi1ai/OXzW3HuM41u6eGPmbzkNk9X5bL9PXQ35QrEyMSiNKG4hR6lQZHFzFvSHrRNvtBiD1Jm+V+kJ/IFSapZxvjv0lum/al+V1K2IpjuCnATr0BkcMql+RknJmkJmp9ynsbIx5FG/7lf+5NkEpArCylrJUY+ZhIxMpGY8fMZv3Y/ZfLRdutTLsG9btqf2ivbrucgpj9O+5Mk1SdrOrK2o18Opo8Pffovbbz1kb9THnGccWKSxZD5v0uZmIz383x8nEZPJmacXKRMOrowYei1rAP5LPVjQ5u6ZLZ/NGXxaa5mSVLVsg7z99TPR/43pJz4LTVSJh7nUQbptnY75epH1r1IUlWWoawxK/0cqqusK8kv71Kj5epS1n/kdlPpG7kt5fbLS0mSei1bGuRKR+lnT51lfyNpYGQR8i+o9M3cpk6k/F0lqRfyy9v3qfTzps7uIE/01sDJJbpdKItuS9/YbSnrhP6DsiZJkiYrPzP/k0o/Z+ruEJIGVnZEPYlK39xt6kbKOQreE5U0Ufm5kSdISj9b6u5J8kquBl7eVDvRA1T6Rm9TuTf7MpKk8coTc6WfJ/0ovyhKrfEs+hOVvtnb1qmUvU4kaWb2o9LPkH7lL05qnZyYfCSVvuHb2AmUYwckabRcCf4clX5u9KuLydvFaq3XUvbFKH3zt60c3Jet17N7ryRlQ8xvUunnRT/bnaRWy5k/Z1DpDdDGsr/JgbQgSeqmnAL/Uyr9jOhnt5JP56kTsgtozgLIQWylN0Mbu432pRwFIKk7csp7zn0q/Vzodx8gqVNeSNdT6Q3R1nKrKQvLvAIitd9mlKsKpZ8F/e5vlPV3UufkVOPsBlp6Y7S5OylXfRYiSe2TtRM5rLT0/m9Cbo+uTsuK6nfTQ1R6g7S5uyjP8y9MkgZfbqceS6X3e1O6nOYgqfPWpL9Q6Y3S9nL0/qdoUZI0mDaiK6n0Hm9SbyJJw+aho6j0ZulCeQomZzesSJIGQw56+zDlMfrS+7pJ5ej7/PtKmsHrKesgSm+cLpR7w9mIbD2S1Fwr0y+p9D5uYq8mSWNYjrpw1P6sOo22IHcXlJoj2wLsQw9S6X3bxH5AkmYhg+1u1IXD5mbVBZTTcLMDoqT+yZXIpu7NMVZZR5aTwyWN06p0JpXeUF0rz99/hBYnSfWZlw6lQdz8ML/ASZqgLIjKpc1HqPTG6loP0zdoY5JUrZfT1VR6Lza935ILSqUpyGO3f6DSG6yrnUc7UZ4KktQ7q9MPqfS+G4QepeeQpCnK5jefoCbvDNiPsiX7IbQSSZq87KmTR9sH4RHZmXUASeqh9elPVHrDdbkn6cf0OnKHQmn85qK9KbsKl95bg9RfKX8fST2WgfVDNEiPtdXZzXQYeblVGlueoHsDXUWl99Gglc0Ifc9LFctGPqdS6U1oQ51L7yEPp5OGZMKxFeW9UXrPDGpvJkk1yA+Rt1JTj6JuSjmQ7zh6GbnaXV2UnxXZIfl8Kr1HBrn/Ikk1W4y+RqU3pU3fdXQwrUP5YSy1WSba21E25Cu9Hwa935HrOqQ+2pyuoNIb1J7eJZSnhfIIodQmWQv2FsqCy9L3fhvKU23Lk6Q+y94WB1I23Cq9Wa1ctoT+d/IHmQbZErQfZcff0vd5W3qKcqaTpAbJ4tOTqPSmtbHLD7RsV78nPZOkQZBH7b9OXfmF430kqaFeSZdT6c1rs+73tD9lB1nXhKhJcoBinuY4i0rfu23tkySp4bL46sOUZ91Lb2QbX1fS5+iFlGPCpX7IJDiHt/2DSt+nbe5I8hcAaYDk1sEJVHpD28TKI8xfpa1pAZKqlLUbub3Q5XObvkk+Di8NqM3oQiq9uW3i5XyLX1MW9W1I/nBUL+RKZXYX/REN+hkqU+1k8jgEacDlVsE76EYqvdFt8t1G36ZdyAWqmoh5KRt9HUt3Uun7q2udQZ5ELbXIfPQxuo9Kb3qbetlLISd/bkOLkzRavid2pjyF5hlM03caeStTaqml6Evk0fvVdzH9N+1Ay5G6JYsjs2ndBym36J6g0vdJ18t6NHcllTrg2eT+H/V2LWXh3K60BrlGpH2WoR0pe220fXOvXnQE+T6QOubF1LYTLAele+h0yiOT29NK5COEgyUnIueJpxxg1uZty6soj/73lW82qX/y/su6hP+gHKqm/sm5FNnWPeWE0T/RLZQf1Oqv/GaevTU2GdVzyb1eJia3nN5Fx0/7Ux858ZD6Lz9Y30SfoufkC2qEPPWQ9SKjy8F3d5OqkTEpt02eR5lgvGD48wVJk5fNDXOo3anT/tRnTjyk5shvcLlPnQnIqvmCGik7Wo5MRC6ja4bL13MWjcYnm3atPVyuYIx87pNJvZU9hbL1+1XT/tQATjyk5skZEdmjImcmrJgvaCBkE6rraGQiMlIWt15PD1HXLEKrUA5VzMe0FmWCsTSpWl+hvSmH2zWGEw+pueamPInxCVo2X9BAu5duolwZycdSd1AmKE1fW5JdLnNlIo+JLzn8MROJLNQdPdFYmFS/7FfyXspGe43jxENqvuwqmF1Q96X8MFe7Za+XrCOZsTyNM/J5foN9ZBbln5P1Q6PL7bwZv5bdPOenbCQ11sdMIEYmGPm4GDl+NFPWIWXNWG4DNpLfONLgyG+ZuVebM0t8CkbSjL5Fe1GueDSWEw9p8OR9+1ran3KEvKRuy5lQe9JPp/2p4XwOWhpMV9I3KAc8Zf1HtoiW1D1HUzbCy0ZqA8ErHlI7bEBZA5J7u/5CIbXf5fRuOmfanwaIEw+pXVagXHLdjbIAUFK7ZNHwIXQwPZovDBonHlI75Tj+t1NO6My+CZIGX65u7E7ZvG5gOfGQ2i3v8S0oE5AsSJU0eK6gj9JPaODPD3LiIXVHjuR/P72Tsj+DpGbLQYUH0rGUQ95awYmH1D05cGsHys6GG+YLkhrlATqMjqRG78kxGU48pG7biLIQNYfTZYdKSf2Tqxr/Q5+h2/KFNnLiISm8CiL1T55Oyb48h1MOFWw1Jx6SZuRVEKke99N/039R1nN0ghMPSWPJI7nb0s60JeVAMUlTl1OIs34jk44c/tcpTjwkjcczKVdAdqHn5guSJuwG+jx9nR7KF7rIiYekicjPjPVoJ3obLU2SZu5MypkqJ1N2Hu00Jx6SJivH9OcWTCYgW9NCJGlIHoM9njLhGOidRnvNiYekXpibMgnJIXXb0MIkdVF2Gc3ajW/RvfmCpufEQ1KvzUWvoExCsjh1UZLaLLdPfkrH0Ok08NuaV8mJh6QqzUkvpzdSJiFLkNQW59FxdCLdmS9o1px4SKrL7PQ8ynqQ19G6JA2aPJmSyUbWb1yZL2hinHhI6pcVKSfmZhKSWzNZJyI10X30Q8q6jbPoKdIkOfGQ1AQ5LTeTj0xCtqLlSOqn2ymPv55EZ9BjpB5w4iGpafJzKUf4b0GZjLyMFiGpajdSJhrpbHqS1GNOPCQ1XdaG5OC6TELSi2keknohe2z8jHIr5XzyiZSKOfGQNGgy6Xgh5WmZF9EmNC9J45GnT35J/zfcP0g1cuIhadDlkd31KZORTERSzpaR4gk6l06jTDT+TN5C6SMnHpLaJj/XVqKRSUgmJGtTtnhX+z1Mv6dzRpWnUtQQTjwkdUFuz6xDWSuy0fDH/Dm7rGqw3UyjJxkXUucPYmsyJx6SuiqTjlwJGZmIpPx5AVIz3UUXjCq3UK4nF4QOECcekvQv+Zm4Aq01XCYiI597+m69/k6jJxkpX3OSMeCceEjSrOVnZTY1G5mMrEar0KrDH911dXIepaspJ7pm+/GUz5Nnn7SUEw9Jmppn0DI0MgnJx5HPl6dlqav7juTqxC2UKxUpG3RdQyMTjHzNJ0w6xomHJFUrP2cXpkxAxiqn9i5K2aE128c33YOUKxIj3UHZYnxkcjEy0biJXOip6TjxkKRmyaLXTEBGJiL5OFImJbl6MqtyFSZXG1IONBv5fMavPUIPUR5BzceRZvxzFnVmcjEy0cj/P0mSJEmSJEmSJEmSJEmSJEmSJEmSJEmSJEmSJEmSJEmSJEmSJEmSJEmSJEmSJEmSJEmSJEmSJEmSJEmSJEmSJEmSJEmSJEmSJEmSJEmSJEmq2myz/X+40rhDMHvYAQAAAABJRU5ErkJggg==;rotation=-90;" parent="1" vertex="1">
                    <mxGeometry x="189.99999999999997" y="525" width="72.11" height="60" as="geometry"/>
                </mxCell>
                <mxCell id="37" style="edgeStyle=orthogonalEdgeStyle;rounded=0;orthogonalLoop=1;jettySize=auto;html=1;exitX=0;exitY=0.25;exitDx=0;exitDy=0;entryX=-0.003;entryY=0.54;entryDx=0;entryDy=0;entryPerimeter=0;endArrow=none;endFill=0;fontSize=16;" edge="1" parent="1" source="8" target="39">
                    <mxGeometry relative="1" as="geometry"/>
                </mxCell>
                <mxCell id="38" style="edgeStyle=orthogonalEdgeStyle;rounded=0;orthogonalLoop=1;jettySize=auto;html=1;exitX=0;exitY=0.75;exitDx=0;exitDy=0;entryX=0.004;entryY=0.067;entryDx=0;entryDy=0;entryPerimeter=0;endArrow=none;endFill=0;fontSize=16;" edge="1" parent="1" source="8" target="23">
                    <mxGeometry relative="1" as="geometry"/>
                </mxCell>
                <mxCell id="8" value="" style="rounded=0;whiteSpace=wrap;html=1;rotation=90;" parent="1" vertex="1">
                    <mxGeometry x="35" y="522" width="160" height="55" as="geometry"/>
                </mxCell>
                <mxCell id="13" value="&lt;font style=&quot;font-size: 18px&quot;&gt;Transistors&lt;/font&gt;" style="text;html=1;strokeColor=none;fillColor=none;align=center;verticalAlign=middle;whiteSpace=wrap;rounded=0;rotation=-90;" parent="1" vertex="1">
                    <mxGeometry x="77.5" y="539.5" width="75" height="20" as="geometry"/>
                </mxCell>
                <mxCell id="26" style="edgeStyle=orthogonalEdgeStyle;rounded=0;orthogonalLoop=1;jettySize=auto;html=1;exitX=1;exitY=0.5;exitDx=0;exitDy=0;exitPerimeter=0;entryX=0;entryY=0.5;entryDx=0;entryDy=0;entryPerimeter=0;endArrow=none;endFill=0;fontSize=16;" edge="1" parent="1" source="18" target="25">
                    <mxGeometry relative="1" as="geometry"/>
                </mxCell>
                <mxCell id="18" value="" style="verticalLabelPosition=bottom;shadow=0;dashed=0;align=center;html=1;verticalAlign=top;shape=mxgraph.electrical.abstract.amplifier;" parent="1" vertex="1">
                    <mxGeometry x="320" y="507.5" width="30" height="32" as="geometry"/>
                </mxCell>
                <mxCell id="20" value="" style="pointerEvents=1;verticalLabelPosition=bottom;shadow=0;dashed=0;align=center;html=1;verticalAlign=top;shape=mxgraph.electrical.signal_sources.signal_ground;" parent="1" vertex="1">
                    <mxGeometry x="275.75" y="582" width="7.5" height="10" as="geometry"/>
                </mxCell>
                <mxCell id="22" style="edgeStyle=orthogonalEdgeStyle;rounded=0;orthogonalLoop=1;jettySize=auto;html=1;exitX=0;exitY=0.5;exitDx=0;exitDy=0;exitPerimeter=0;entryX=0;entryY=0.5;entryDx=0;entryDy=0;entryPerimeter=0;endArrow=none;endFill=0;" parent="1" source="21" target="18" edge="1">
                    <mxGeometry relative="1" as="geometry">
                        <Array as="points">
                            <mxPoint x="310" y="566"/>
                            <mxPoint x="310" y="524"/>
                        </Array>
                    </mxGeometry>
                </mxCell>
                <mxCell id="33" style="edgeStyle=orthogonalEdgeStyle;rounded=0;orthogonalLoop=1;jettySize=auto;html=1;exitX=1;exitY=0.5;exitDx=0;exitDy=0;exitPerimeter=0;entryX=0.01;entryY=0.767;entryDx=0;entryDy=0;entryPerimeter=0;endArrow=none;endFill=0;fontSize=16;" edge="1" parent="1" source="21" target="23">
                    <mxGeometry relative="1" as="geometry"/>
                </mxCell>
                <mxCell id="21" value="" style="verticalLabelPosition=bottom;shadow=0;dashed=0;align=center;html=1;verticalAlign=top;shape=mxgraph.electrical.abstract.amplifier;" parent="1" vertex="1">
                    <mxGeometry x="320" y="550" width="30" height="32" as="geometry"/>
                </mxCell>
                <mxCell id="23" value="" style="rounded=0;whiteSpace=wrap;html=1;rotation=0;fontSize=16;" parent="1" vertex="1">
                    <mxGeometry x="480" y="410" width="80" height="204.5" as="geometry"/>
                </mxCell>
                <mxCell id="30" style="edgeStyle=orthogonalEdgeStyle;rounded=0;orthogonalLoop=1;jettySize=auto;html=1;exitX=1;exitY=0.5;exitDx=0;exitDy=0;exitPerimeter=0;entryX=0;entryY=0.5;entryDx=0;entryDy=0;endArrow=none;endFill=0;fontSize=16;" edge="1" parent="1" source="25" target="29">
                    <mxGeometry relative="1" as="geometry"/>
                </mxCell>
                <mxCell id="25" value="" style="verticalLabelPosition=bottom;shadow=0;dashed=0;align=center;html=1;verticalAlign=top;shape=stencil(1VbRjoIwEPwaHrlIq+bu8cLpf6xYtLG2pFTFv7+W0hwbpUG8xJjw0J2FnWlnyTaheb2HiiVkBnXFCpPQn4SQM2gOG2FhYjN7D86XPpRwZB5Zc2GY9mhttDqwC9+a7nUu90xz47MXjy2IC+kqmX1b0D00L5SUlpgrWaNML29rA5cGcXNJfOnKshyZ09HiM482XfSx8PEVZROyfoRLncwUsmwSGZfZGC68rcD8+MbGkGXjyGhukSE7ab6B4rDT6iS3dyVq1303zYYaZ2j3ETkDpDQvlWYRNSUXwrd05FQrcM1+kwjpozqzP81LpJnQmGGhAujCLgToHUvtOi0F7NCedXCos0RfcVxfGKt6n2XoGIOmJoWG16lWBpxx9874RXpxH87/W2/MoezNHHqR3skOjdMbc4i+mUMv0jvZoXF6sUOE4BLRuRRKCC77JT7xn/z1tAryvIosqqIdNQPTwN6whuZI+9nNIGpRfytrgV8=);fontSize=16;comic=0;" vertex="1" parent="1">
                    <mxGeometry x="360" y="508.5" width="30" height="30" as="geometry"/>
                </mxCell>
                <mxCell id="32" style="edgeStyle=orthogonalEdgeStyle;rounded=0;orthogonalLoop=1;jettySize=auto;html=1;exitX=1;exitY=0.5;exitDx=0;exitDy=0;exitPerimeter=0;entryX=0;entryY=0.5;entryDx=0;entryDy=0;endArrow=none;endFill=0;fontSize=16;" edge="1" parent="1" source="28" target="23">
                    <mxGeometry relative="1" as="geometry"/>
                </mxCell>
                <mxCell id="28" value="" style="verticalLabelPosition=bottom;shadow=0;dashed=0;align=center;html=1;verticalAlign=top;shape=mxgraph.electrical.abstract.amplifier;" vertex="1" parent="1">
                    <mxGeometry x="440" y="506.5" width="30" height="32" as="geometry"/>
                </mxCell>
                <mxCell id="31" style="edgeStyle=orthogonalEdgeStyle;rounded=0;orthogonalLoop=1;jettySize=auto;html=1;exitX=1;exitY=0.5;exitDx=0;exitDy=0;entryX=0;entryY=0.5;entryDx=0;entryDy=0;entryPerimeter=0;endArrow=none;endFill=0;fontSize=16;" edge="1" parent="1" source="29" target="28">
                    <mxGeometry relative="1" as="geometry"/>
                </mxCell>
                <mxCell id="29" value="&lt;font style=&quot;font-size: 25px&quot;&gt;+&lt;/font&gt;" style="ellipse;whiteSpace=wrap;html=1;aspect=fixed;comic=0;fontSize=16;" vertex="1" parent="1">
                    <mxGeometry x="402" y="511.75" width="23.5" height="23.5" as="geometry"/>
                </mxCell>
                <mxCell id="34" value="" style="endArrow=none;html=1;fontSize=16;exitX=0.5;exitY=0;exitDx=0;exitDy=0;" edge="1" parent="1" source="29">
                    <mxGeometry width="50" height="50" relative="1" as="geometry">
                        <mxPoint x="400" y="490" as="sourcePoint"/>
                        <mxPoint x="414" y="500" as="targetPoint"/>
                    </mxGeometry>
                </mxCell>
                <mxCell id="35" value="1.5 V" style="text;html=1;align=center;verticalAlign=middle;resizable=0;points=[];autosize=1;fontSize=16;" vertex="1" parent="1">
                    <mxGeometry x="390" y="480" width="50" height="20" as="geometry"/>
                </mxCell>
                <mxCell id="39" value="&lt;font style=&quot;font-size: 12px&quot;&gt;PWM2&lt;/font&gt;" style="text;html=1;align=left;verticalAlign=middle;resizable=0;points=[];autosize=1;fontSize=16;" vertex="1" parent="1">
                    <mxGeometry x="483" y="430" width="50" height="20" as="geometry"/>
                </mxCell>
                <mxCell id="40" value="&lt;font style=&quot;font-size: 12px&quot;&gt;PWM1&lt;/font&gt;" style="text;html=1;align=left;verticalAlign=middle;resizable=0;points=[];autosize=1;fontSize=16;" vertex="1" parent="1">
                    <mxGeometry x="483" y="412" width="50" height="20" as="geometry"/>
                </mxCell>
                <mxCell id="41" value="&lt;font style=&quot;font-size: 12px&quot;&gt;ADC1&lt;/font&gt;" style="text;html=1;align=left;verticalAlign=middle;resizable=0;points=[];autosize=1;fontSize=16;" vertex="1" parent="1">
                    <mxGeometry x="483" y="510" width="50" height="20" as="geometry"/>
                </mxCell>
                <mxCell id="42" value="&lt;font style=&quot;font-size: 12px&quot;&gt;ADC2&lt;/font&gt;" style="text;html=1;align=left;verticalAlign=middle;resizable=0;points=[];autosize=1;fontSize=16;" vertex="1" parent="1">
                    <mxGeometry x="483" y="556" width="50" height="20" as="geometry"/>
                </mxCell>
                <mxCell id="43" value="" style="endArrow=none;html=1;fontSize=16;exitX=0.003;exitY=0.859;exitDx=0;exitDy=0;exitPerimeter=0;entryX=0.998;entryY=0.857;entryDx=0;entryDy=0;entryPerimeter=0;" edge="1" parent="1" source="23" target="23">
                    <mxGeometry width="50" height="50" relative="1" as="geometry">
                        <mxPoint x="480" y="680" as="sourcePoint"/>
                        <mxPoint x="530" y="630" as="targetPoint"/>
                    </mxGeometry>
                </mxCell>
                <mxCell id="44" value="&lt;font style=&quot;font-size: 16px&quot;&gt;µC&lt;/font&gt;" style="text;html=1;align=center;verticalAlign=middle;resizable=0;points=[];autosize=1;fontSize=16;" vertex="1" parent="1">
                    <mxGeometry x="500" y="590" width="40" height="20" as="geometry"/>
                </mxCell>
                <mxCell id="45" value="&lt;font style=&quot;font-size: 12px&quot;&gt;SPI1&lt;/font&gt;" style="text;html=1;align=right;verticalAlign=middle;resizable=0;points=[];autosize=1;fontSize=16;" vertex="1" parent="1">
                    <mxGeometry x="515" y="464.5" width="40" height="20" as="geometry"/>
                </mxCell>
                <mxCell id="46" value="" style="rounded=0;whiteSpace=wrap;html=1;rotation=0;fontSize=16;" vertex="1" parent="1">
                    <mxGeometry x="590" y="410" width="80" height="204.5" as="geometry"/>
                </mxCell>
                <mxCell id="52" value="" style="endArrow=none;html=1;fontSize=16;exitX=0.003;exitY=0.859;exitDx=0;exitDy=0;exitPerimeter=0;entryX=0.998;entryY=0.857;entryDx=0;entryDy=0;entryPerimeter=0;" edge="1" parent="1" source="46" target="46">
                    <mxGeometry width="50" height="50" relative="1" as="geometry">
                        <mxPoint x="590" y="680" as="sourcePoint"/>
                        <mxPoint x="640" y="630" as="targetPoint"/>
                    </mxGeometry>
                </mxCell>
                <mxCell id="53" value="&lt;font style=&quot;font-size: 16px&quot;&gt;Arduino&lt;/font&gt;" style="text;html=1;align=center;verticalAlign=middle;resizable=0;points=[];autosize=1;fontSize=16;" vertex="1" parent="1">
                    <mxGeometry x="595" y="590" width="70" height="20" as="geometry"/>
                </mxCell>
                <mxCell id="54" value="&lt;font style=&quot;font-size: 12px&quot;&gt;SPI1&lt;/font&gt;" style="text;html=1;align=left;verticalAlign=middle;resizable=0;points=[];autosize=1;fontSize=16;" vertex="1" parent="1">
                    <mxGeometry x="594" y="464.5" width="40" height="20" as="geometry"/>
                </mxCell>
                <mxCell id="55" value="" style="endArrow=none;html=1;fontSize=16;entryX=-0.01;entryY=0.324;entryDx=0;entryDy=0;entryPerimeter=0;" edge="1" parent="1" target="46">
                    <mxGeometry width="50" height="50" relative="1" as="geometry">
                        <mxPoint x="559" y="476" as="sourcePoint"/>
                        <mxPoint x="500" y="470" as="targetPoint"/>
                    </mxGeometry>
                </mxCell>
            </root>
        </mxGraphModel>
    </diagram>
</mxfile>